<svg xmlns="http://www.w3.org/2000/svg" viewBox="0 0 200 200" width="100%" height="100%">
  <rect width="200" height="200" rx="36" fill="#f0fdf4"/>
  <rect x="2" y="2" width="196" height="196" rx="34" fill="none" stroke="#bbf7d0" stroke-width="3"/>
  <g transform="translate(30, 25)">
    <!-- ZKTeco Stylized Biometric Icon -->
    <path d="M70 10 C 35 10, 10 35, 10 70 C 10 110, 35 130, 70 130 C 105 130, 130 110, 130 70 C 130 35, 105 10, 70 10 Z" fill="none" stroke="#16a34a" stroke-width="8" stroke-linecap="round"/>
    <path d="M70 28 C 48 28, 28 46, 28 70 C 28 98, 48 112, 70 112 C 92 112, 112 98, 112 70 C 112 46, 92 28, 70 28 Z" fill="none" stroke="#15803d" stroke-width="7" stroke-linecap="round"/>
    <path d="M70 46 C 56 46, 44 56, 44 70 C 44 86, 56 94, 70 94 C 84 94, 96 86, 96 70 C 96 56, 84 46, 70 46 Z" fill="none" stroke="#22c55e" stroke-width="6" stroke-linecap="round"/>
    <circle cx="70" cy="70" r="10" fill="#16a34a"/>
    <!-- ZKTeco Text -->
    <text x="70" y="162" font-family="Arial, Helvetica, sans-serif" font-weight="900" font-size="22" fill="#0f172a" text-anchor="middle" letter-spacing="1">ZK<tspan fill="#16a34a">Teco</tspan></text>
  </g>
</svg>
